<svg id="图层_1" data-name="图层 1" xmlns="http://www.w3.org/2000/svg" viewBox="0 0 382 382"><defs><style>.cls-1{fill:#f8c766;}.cls-2{fill:#ed9d32;}.cls-3{fill:#c67d26;}</style></defs><title>月亮</title><circle class="cls-1" cx="191" cy="191" r="191"/><circle class="cls-2" cx="94.09" cy="84.81" r="38.27"/><path class="cls-3" d="M267.72,300.33a38.26,38.26,0,0,1,69-22.89,38.27,38.27,0,1,0-65.29,39.23A38.15,38.15,0,0,1,267.72,300.33Z" transform="translate(-208 -209)"/><circle class="cls-2" cx="277.94" cy="270.8" r="34.69"/><path class="cls-3" d="M454.77,485.68A34.69,34.69,0,0,1,517.31,465a34.7,34.7,0,1,0-59.22,35.51A34.53,34.53,0,0,1,454.77,485.68Z" transform="translate(-208 -209)"/><circle class="cls-2" cx="159.19" cy="69.07" r="19.67"/><path class="cls-3" d="M349.52,281.41A19.68,19.68,0,0,1,385,269.67a19.67,19.67,0,1,0-33.58,20.14A19.54,19.54,0,0,1,349.52,281.41Z" transform="translate(-208 -209)"/><circle class="cls-2" cx="91.94" cy="280.1" r="19.67"/><path class="cls-3" d="M282.27,492.44a19.68,19.68,0,0,1,35.47-11.74,19.68,19.68,0,1,0-33.59,20.14A19.69,19.69,0,0,1,282.27,492.44Z" transform="translate(-208 -209)"/><circle class="cls-2" cx="162.76" cy="29.01" r="8.94"/><path class="cls-3" d="M362.73,239.53a8.94,8.94,0,0,1,16.12-5.33,8.94,8.94,0,1,0-15.26,9.15A8.91,8.91,0,0,1,362.73,239.53Z" transform="translate(-208 -209)"/><circle class="cls-2" cx="55.46" cy="253.64" r="8.94"/><path class="cls-3" d="M255.43,464.15a8.94,8.94,0,0,1,16.12-5.33A8.94,8.94,0,1,0,256.28,468,9,9,0,0,1,255.43,464.15Z" transform="translate(-208 -209)"/><circle class="cls-2" cx="329.44" cy="235.04" r="5.37"/><path class="cls-3" d="M532.62,445a5.36,5.36,0,0,1,9.67-3.2,5.36,5.36,0,1,0-9.15,5.49A5.37,5.37,0,0,1,532.62,445Z" transform="translate(-208 -209)"/></svg>